<svg width="24" height="29" viewBox="0 0 24 29" fill="none" xmlns="http://www.w3.org/2000/svg">
<path d="M23.7369 21.0295C23.3453 22.4655 22.562 23.771 21.7787 25.0765C20.6038 26.7736 19.4288 28.4708 17.4706 28.6013C15.6429 28.6013 14.9902 27.4264 12.7709 27.4264C10.5516 27.4264 9.89882 28.4708 8.07114 28.6013C6.24346 28.7319 4.80743 26.7736 3.6325 24.946C1.15208 21.4212 -0.675597 15.0243 1.80482 10.5856C2.97976 8.49687 5.19908 7.06084 7.6795 7.06084C9.50717 7.06084 11.2043 8.36632 12.3792 8.36632C13.5542 8.36632 15.6429 6.79974 17.8623 7.06084C19.951 7.06084 21.9093 8.10523 23.0842 9.9329C21.2565 11.1078 20.0816 13.1966 19.951 15.4159C19.951 17.7658 21.3871 20.1157 23.7369 21.0295ZM16.4262 4.71097C15.3818 6.01645 13.8153 6.66919 12.2487 6.66919C12.1181 5.10261 12.6403 3.53603 13.6847 2.23055C14.7291 1.05562 16.2957 0.272327 17.8623 0.0112305C17.9928 1.83891 17.4706 3.53604 16.4262 4.71097Z" fill="white"/>
</svg>
