<svg width="99" height="34" viewBox="0 0 99 34" fill="none" xmlns="http://www.w3.org/2000/svg">
<path d="M6.60905 13.4132L0.734375 29.6012H3.34534L4.78137 25.1625H10.9171L12.3532 29.6012H14.9641L9.08947 13.4132H6.60905ZM5.56466 23.2043L8.04508 16.1547H8.17563L10.5255 23.2043H5.56466ZM22.9276 17.7213C21.361 17.7213 19.925 18.5046 19.1417 19.8101V17.8518H16.7918V33.5176H19.2722V27.643C20.0555 28.9484 21.4916 29.7317 22.9276 29.7317C25.9302 29.7317 27.8884 27.3819 27.8884 23.7265C27.8884 20.0711 25.9302 17.7213 22.9276 17.7213ZM22.2748 27.643C20.4472 27.643 19.1417 26.0764 19.1417 23.7265C19.1417 21.3766 20.4472 19.8101 22.2748 19.8101C24.1025 19.8101 25.408 21.3766 25.408 23.7265C25.408 26.0764 24.1025 27.643 22.2748 27.643ZM35.8519 17.7213C34.2853 17.7213 32.8493 18.5046 32.066 19.8101V17.8518H29.7161V33.5176H32.1965V27.643C32.9798 28.9484 34.4158 29.7317 35.8519 29.7317C38.8545 29.7317 40.8127 27.3819 40.8127 23.7265C40.9433 20.0711 38.8545 17.7213 35.8519 17.7213ZM35.1991 27.643C33.3715 27.643 32.066 26.0764 32.066 23.7265C32.066 21.3766 33.3715 19.8101 35.1991 19.8101C37.0268 19.8101 38.3323 21.3766 38.3323 23.7265C38.3323 26.0764 37.1574 27.643 35.1991 27.643ZM86.6352 17.7213C86.8963 17.7213 87.1574 17.7213 87.4185 17.8518V20.0711C87.0268 19.9406 86.6352 19.9406 86.3741 19.9406C85.0686 19.9406 83.8936 20.985 83.8936 22.2905C83.8936 22.421 83.8936 22.5516 83.8936 22.6821V29.7317H81.4132V17.8518H83.7631V19.8101C84.1548 18.5046 85.3297 17.5907 86.6352 17.7213ZM64.703 17.8518H66.9224V19.6795H64.703V26.2069C64.703 27.2513 65.0947 27.643 66.1391 27.643C66.4002 27.643 66.6613 27.643 66.9224 27.643V29.6012C66.5307 29.7317 66.0085 29.7317 65.6169 29.7317C63.267 29.7317 62.3532 28.8179 62.3532 26.5986V19.6795H60.6561V17.7213H62.3532V14.9798H64.8336V17.8518H64.703ZM73.8414 17.7213C70.4472 17.7213 68.2279 20.0711 68.2279 23.7265C68.2279 27.5124 70.4472 29.7317 73.8414 29.7317C77.2357 29.7317 79.455 27.3819 79.455 23.7265C79.455 19.9406 77.2357 17.7213 73.8414 17.7213ZM76.9746 23.7265C76.9746 26.3375 75.7997 27.7735 73.8414 27.7735C71.8832 27.7735 70.7083 26.3375 70.7083 23.7265C70.7083 21.2461 71.8832 19.6795 73.8414 19.6795C75.7997 19.6795 76.9746 21.1155 76.9746 23.7265ZM59.4811 24.9014C59.4811 27.904 57.0007 29.8623 53.2148 29.8623C49.5594 29.8623 47.2096 28.0346 47.079 25.032H49.5595C49.69 26.5986 51.2566 27.643 53.4759 27.643C55.5647 27.643 57.0007 26.5986 57.0007 25.1625C57.0007 23.857 56.0869 23.2043 53.9981 22.6821L51.7788 22.2905C48.7762 21.5072 47.4707 20.2017 47.4707 17.9824C47.4707 15.2409 49.9511 13.2826 53.3453 13.2826C56.7396 13.2826 59.0895 15.2409 59.22 17.9824H56.7396C56.6091 16.4158 55.3036 15.3714 53.3453 15.3714C51.3871 15.3714 50.0816 16.4158 50.0816 17.8518C50.0816 19.0268 50.9955 19.6795 53.0843 20.2017L54.9119 20.5933C58.0451 21.2461 59.4811 22.5516 59.4811 24.9014ZM98.7762 24.3792V23.596C98.7762 20.0711 96.6874 17.7213 93.4237 17.7213C90.16 17.7213 87.9407 20.0711 87.9407 23.857C87.9407 27.5124 90.0294 29.8623 93.5542 29.8623C96.1652 29.8623 98.254 28.4262 98.6456 26.2069H96.2957C95.9041 27.2513 94.7292 28.0346 93.5542 27.904C93.4237 27.904 93.2931 27.904 93.1626 27.904C91.4655 27.7735 90.16 26.2069 90.4211 24.5098V24.3792H98.7762ZM90.4211 22.5516C90.4211 20.8544 91.7266 19.549 93.4237 19.549C93.5542 19.549 93.5542 19.549 93.6848 19.549C95.2514 19.6795 96.4263 20.985 96.4263 22.5516H90.4211ZM90.0294 9.10509C91.2044 9.23564 92.2487 8.45235 92.6404 7.40796H91.4655C91.2044 7.93016 90.6822 8.19125 90.0294 8.06071H89.8989C88.985 7.93016 88.4628 7.27742 88.4628 6.36358H92.6404V5.97193C92.6404 4.14426 91.596 2.96932 90.0294 2.96932C89.8989 2.96932 89.7683 2.96932 89.6378 2.96932C88.2018 3.23042 87.1574 4.5359 87.2879 5.97193C87.2879 6.10248 87.2879 6.23303 87.2879 6.36358C87.4185 7.93016 88.5934 9.10509 90.0294 9.10509ZM88.5934 5.44974C88.5934 4.66645 89.2461 4.01371 90.16 4.01371H90.2905C91.0738 4.01371 91.596 4.797 91.596 5.58029L88.5934 5.44974ZM34.1547 8.97454H32.9798V0.880548H34.1547V8.97454ZM51.3871 9.10509C52.1704 9.10509 52.8231 8.71345 53.2148 8.06071H53.3453V8.97454H54.5203V0.880548H53.3453V4.01371H53.2148C52.8231 3.36097 52.1704 2.96932 51.3871 2.96932C49.9511 2.96932 48.9067 4.14426 48.9067 5.97193C49.0373 7.93016 49.9511 9.10509 51.3871 9.10509ZM51.7788 4.01371C52.6926 4.01371 53.3453 4.797 53.3453 5.97193C53.3453 7.14687 52.6926 7.93016 51.7788 7.93016C50.7344 7.93016 50.2122 7.14687 50.2122 5.97193C50.2122 4.797 50.7344 4.01371 51.7788 4.01371ZM76.844 4.14426H75.7997V3.09987H76.7135V1.66384H77.8884V3.09987H79.1939V4.01371H77.8884V7.01632C77.8884 7.66906 78.1495 7.93016 78.6717 7.93016C78.8023 7.93016 78.9328 7.93016 79.0634 7.93016V8.84399C78.8023 8.84399 78.6717 8.84399 78.4106 8.84399C77.1051 8.84399 76.583 8.45235 76.583 7.27741V4.14426H76.844ZM81.9354 8.97454H80.7605V0.75H81.9354V4.01371H82.066C82.3271 3.36097 83.1104 2.83877 83.8936 2.96932C84.938 2.96932 85.8519 3.75261 85.9824 4.797C85.9824 4.92755 85.9824 5.05809 85.9824 5.18864V8.97454H84.8075V5.44974C84.8075 4.5359 84.4158 4.01371 83.502 4.01371C82.7187 4.01371 82.066 4.5359 82.066 5.31919C82.066 5.44974 82.066 5.44974 82.066 5.58029V8.97454H81.9354ZM64.8336 6.10248C64.8336 5.97193 64.8336 5.71083 64.8336 5.58029C64.703 4.01371 63.267 2.96932 61.831 3.09987C60.2644 3.23042 59.22 4.66645 59.3506 6.10248C59.3506 6.23303 59.3506 6.49412 59.3506 6.62467C59.4811 8.19125 60.9171 9.23564 62.3532 9.10509C63.9198 8.97454 64.9641 7.53851 64.8336 6.10248ZM60.5255 6.10248C60.5255 4.797 61.0477 4.14426 62.0921 4.14426C63.1365 4.14426 63.6587 4.92755 63.6587 6.10248C63.6587 7.40796 63.1365 8.19125 62.0921 8.19125C61.0477 8.0607 60.5255 7.40796 60.5255 6.10248ZM8.95892 5.05809C8.95892 4.797 8.95892 4.66645 8.95892 4.40535C8.82837 2.44713 7.13124 1.14165 5.30357 1.27219H2.4315V9.10509H5.30357C7.52289 8.97454 8.95892 7.53851 8.95892 5.05809ZM3.60644 7.93016V2.31658H5.04247C5.17302 2.31658 5.30357 2.31658 5.56466 2.31658C6.87015 2.44713 7.78398 3.75261 7.65344 5.05809C7.65344 5.18864 7.65344 5.44974 7.65344 5.58029C7.52289 6.88577 6.34795 7.93016 5.04247 7.93016H3.60644ZM18.2279 8.97454L16.6613 3.09987H17.8362L18.8806 7.53851H19.0111L20.1861 3.09987H21.361L22.5359 7.53851H22.6665L23.5803 3.09987H24.7553L23.1887 8.97454H22.0138L20.8388 4.66645H20.7083L19.5333 8.97454H18.2279ZM38.3323 2.96932C36.7657 3.09987 35.7213 4.5359 35.8519 5.97193C35.8519 6.10248 35.8519 6.36358 35.8519 6.49412C35.9824 8.0607 37.4185 9.10509 38.8545 8.97454C40.4211 8.844 41.4654 7.40796 41.3349 5.97193C41.3349 5.84138 41.3349 5.58029 41.3349 5.44974C41.2043 4.01371 39.7683 2.83877 38.3323 2.96932ZM38.5934 8.06071C37.549 8.06071 37.0268 7.27741 37.0268 5.97193C37.0268 4.66645 37.549 4.01371 38.5934 4.01371C39.6378 4.01371 40.16 4.797 40.16 5.97193C40.16 7.27741 39.5072 8.06071 38.5934 8.06071ZM47.4707 8.97454V4.92755C47.4707 3.62206 46.6874 2.96932 45.1208 2.96932C43.8153 2.96932 42.9015 3.62206 42.7709 4.66645H43.9459C44.0764 4.2748 44.4681 4.01371 45.1208 4.01371C45.9041 4.01371 46.2957 4.40535 46.2957 4.92755V5.44974L44.7292 5.58029C43.2931 5.71083 42.5098 6.23303 42.5098 7.27741V7.40796C42.6404 8.3218 43.4237 9.10509 44.4681 8.97454C45.1208 8.97454 45.9041 8.71345 46.2957 8.06071H46.4263V8.84399H47.4707V8.97454ZM46.2957 6.88577C46.1652 7.66906 45.5124 8.19125 44.7292 8.19125C44.0764 8.19125 43.6848 7.93016 43.6848 7.40796C43.6848 6.88577 44.0764 6.62467 44.8597 6.62467L46.2957 6.49412V6.88577ZM12.7448 2.96932C11.1782 3.09987 10.1339 4.5359 10.2644 5.97193C10.2644 6.10248 10.2644 6.36358 10.2644 6.49412C10.395 8.0607 11.831 9.10509 13.267 8.97454C14.703 8.844 15.878 7.40796 15.7474 5.97193C15.7474 5.84138 15.7474 5.58029 15.7474 5.44974C15.6169 4.01371 14.3114 2.83877 12.7448 2.96932ZM13.0059 8.06071C11.9615 8.06071 11.4393 7.27741 11.4393 5.97193C11.4393 4.66645 11.9615 4.01371 13.0059 4.01371C14.0503 4.01371 14.5725 4.797 14.5725 5.97193C14.5725 7.27741 14.0503 8.06071 13.0059 8.06071ZM67.5751 5.31919C67.5751 5.44974 67.5751 5.44974 67.5751 5.58029V8.97454H66.4002V3.09987H67.5751V4.01371H67.7057C67.9668 3.36097 68.7501 2.96932 69.4028 2.96932C70.4472 2.83877 71.361 3.62206 71.4916 4.797C71.4916 4.92755 71.4916 5.05809 71.4916 5.18864V8.97454H70.3166V5.44974C70.3166 4.5359 69.925 4.01371 69.0111 4.01371C68.2279 4.01371 67.5751 4.66645 67.5751 5.31919ZM29.9772 5.44974C29.9772 4.5359 29.5856 4.01371 28.6717 4.01371C27.8884 4.01371 27.2357 4.5359 27.2357 5.31919C27.2357 5.44974 27.2357 5.44974 27.2357 5.58029V8.97454H26.1913V3.09987H27.3662V4.01371H27.4968C27.7579 3.36097 28.5412 2.96932 29.1939 2.96932C30.2383 2.83877 31.1521 3.62206 31.2827 4.797C31.2827 4.92755 31.2827 5.05809 31.2827 5.18864V8.97454H30.1077V5.44974H29.9772Z" fill="white"/>
</svg>
