<svg width="24" height="30" viewBox="0 0 24 30" fill="none" xmlns="http://www.w3.org/2000/svg">
<path d="M10.0982 26.8997C10.5253 28.4935 12.1603 29.4375 13.7541 29.0104C15.3479 28.5834 16.2919 26.9483 15.8648 25.3546L10.0982 26.8997ZM7.93067 7.27709C11.9296 6.20558 14.5959 8.96969 15.6674 12.9686L17.6085 20.2131L6.0174 23.3189L4.07626 16.0744C3.00475 12.0755 3.93174 8.3486 7.93067 7.27709ZM6.18364 0.75709C4.98107 1.07932 4.27042 2.31019 4.59265 3.51277L5.04688 5.20797C0.761366 7.41225 -0.122082 11.9971 1.17848 16.8509L3.11963 24.0953L1.67074 24.4836C0.870538 24.698 0.395665 25.5205 0.610077 26.3207C0.82449 27.1209 1.647 27.5958 2.44719 27.3814L22.7316 21.9462C23.5318 21.7317 24.0067 20.9092 23.7923 20.109C23.5779 19.3088 22.7554 18.834 21.9552 19.0484L20.5063 19.4366L18.5651 12.1922C17.2646 7.33838 14.2071 3.80949 9.39355 4.04328L8.93932 2.34808C8.61709 1.1455 7.38622 0.434861 6.18364 0.75709Z" fill="white"/>
</svg>
