<svg width="24" height="24" viewBox="0 0 24 24" fill="none" xmlns="http://www.w3.org/2000/svg">
    <path fill-rule="evenodd" clip-rule="evenodd"
          d="M14 2H6C4.9 2 4.01 2.9 4.01 4L4 20C4 21.1 4.89 22 5.99 22H12V20H6V4H12.0025C12.0019 4.9433 12 10 12 10H18V13.5L20 11.5V8L14 2ZM14 4.83L17.17 8H14V4.83ZM7 14H16V12H7V14ZM7 18H13V16H7V18ZM20.816 14.6292C20.8996 14.5456 21.0061 14.5 21.1125 14.5C21.219 14.5 21.3178 14.5456 21.4014 14.6292L22.3746 15.6018C22.5418 15.7614 22.5418 16.0274 22.3746 16.1869L21.6143 16.9468L20.0558 15.3891L20.816 14.6292ZM15 20.4347L19.6148 15.8298L21.1733 17.3875L16.5661 22H15V20.4347Z"
          fill="white"/>
</svg>
