<svg width="107" height="35" viewBox="0 0 107 35" fill="none" xmlns="http://www.w3.org/2000/svg">
<path d="M8.25 4.625C8.25 5.625 8 6.5 7.375 7.125C6.625 7.875 5.75 8.25 4.625 8.25C3.5 8.25 2.625 7.875 1.875 7.125C1.125 6.375 0.750004 5.5 0.750004 4.375C0.750004 3.25 1.125 2.375 1.875 1.625C2.625 0.875 3.5 0.5 4.625 0.5C5.125 0.5 5.625 0.625 6.125 0.875C6.625 1.125 7 1.375 7.25 1.75L6.625 2.375C6.125 1.75 5.5 1.5 4.625 1.5C3.875 1.5 3.125 1.75 2.625 2.375C2 2.875 1.75 3.625 1.75 4.5C1.75 5.375 2 6.125 2.625 6.625C3.25 7.125 3.875 7.5 4.625 7.5C5.5 7.5 6.125 7.25 6.75 6.625C7.125 6.25 7.375 5.75 7.375 5.125H4.625V4.125H8.25C8.25 4.25 8.25 4.5 8.25 4.625ZM14 1.5H10.625V3.875H13.75V4.75H10.625V7.125H14V8.125H9.625V0.625H14V1.5ZM18.125 8.125H17.125V1.5H15V0.625H20.25V1.5H18.125V8.125ZM23.875 8.125V0.625H24.875V8.125H23.875ZM29.125 8.125H28.125V1.5H26V0.625H31.125V1.5H29V8.125H29.125ZM41 7.125C40.25 7.875 39.375 8.25 38.25 8.25C37.125 8.25 36.25 7.875 35.5 7.125C34.75 6.375 34.375 5.5 34.375 4.375C34.375 3.25 34.75 2.375 35.5 1.625C36.25 0.875 37.125 0.5 38.25 0.5C39.375 0.5 40.25 0.875 41 1.625C41.75 2.375 42.125 3.25 42.125 4.375C42.125 5.5 41.75 6.375 41 7.125ZM36.25 6.5C36.75 7 37.5 7.375 38.25 7.375C39 7.375 39.75 7.125 40.25 6.5C40.75 6 41.125 5.25 41.125 4.375C41.125 3.5 40.875 2.75 40.25 2.25C39.75 1.75 39 1.375 38.25 1.375C37.5 1.375 36.75 1.625 36.25 2.25C35.75 2.75 35.375 3.5 35.375 4.375C35.375 5.25 35.625 6 36.25 6.5ZM43.5 8.125V0.625H44.625L48.25 6.5V5V0.625H49.25V8.125H48.25L44.375 2V3.5V8.125H43.5ZM34.125 19.125C31.125 19.125 28.75 21.375 28.75 24.5C28.75 27.5 31.125 29.875 34.125 29.875C37.125 29.875 39.5 27.625 39.5 24.5C39.5 21.25 37.125 19.125 34.125 19.125ZM34.125 27.625C32.5 27.625 31.125 26.25 31.125 24.375C31.125 22.5 32.5 21.125 34.125 21.125C35.75 21.125 37.125 22.375 37.125 24.375C37.125 26.25 35.75 27.625 34.125 27.625ZM22.5 19.125C19.5 19.125 17.125 21.375 17.125 24.5C17.125 27.5 19.5 29.875 22.5 29.875C25.5 29.875 27.875 27.625 27.875 24.5C27.875 21.25 25.5 19.125 22.5 19.125ZM22.5 27.625C20.875 27.625 19.5 26.25 19.5 24.375C19.5 22.5 20.875 21.125 22.5 21.125C24.125 21.125 25.5 22.375 25.5 24.375C25.5 26.25 24.125 27.625 22.5 27.625ZM8.625 20.75V23H14C13.875 24.25 13.375 25.25 12.75 25.875C12 26.625 10.75 27.5 8.625 27.5C5.25 27.5 2.75 24.875 2.75 21.5C2.75 18.125 5.375 15.5 8.625 15.5C10.375 15.5 11.75 16.25 12.75 17.125L14.375 15.5C13 14.25 11.25 13.25 8.75 13.25C4.25 13.25 0.375 17 0.375 21.5C0.375 26 4.25 29.75 8.75 29.75C11.25 29.75 13 29 14.5 27.375C16 25.875 16.5 23.75 16.5 22.125C16.5 21.625 16.5 21.125 16.375 20.75H8.625ZM65.375 22.5C64.875 21.25 63.625 19.125 60.875 19.125C58.125 19.125 55.875 21.25 55.875 24.5C55.875 27.5 58.125 29.875 61.125 29.875C63.5 29.875 65 28.375 65.5 27.5L63.75 26.25C63.125 27.125 62.375 27.75 61.125 27.75C59.875 27.75 59.125 27.25 58.5 26.125L65.625 23.125L65.375 22.5ZM58.125 24.25C58.125 22.25 59.75 21.125 60.875 21.125C61.75 21.125 62.625 21.625 62.875 22.25L58.125 24.25ZM52.25 29.375H54.625V13.75H52.25V29.375ZM48.5 20.25C47.875 19.625 46.875 19 45.625 19C43 19 40.5 21.375 40.5 24.375C40.5 27.375 42.875 29.625 45.625 29.625C46.875 29.625 47.875 29 48.375 28.375H48.5V29.125C48.5 31.125 47.375 32.25 45.625 32.25C44.25 32.25 43.25 31.25 43 30.375L41 31.25C41.625 32.625 43.125 34.375 45.75 34.375C48.5 34.375 50.75 32.75 50.75 28.875V19.375H48.5V20.25ZM45.75 27.625C44.125 27.625 42.75 26.25 42.75 24.375C42.75 22.5 44.125 21.125 45.75 21.125C47.375 21.125 48.625 22.5 48.625 24.375C48.625 26.25 47.375 27.625 45.75 27.625ZM76.25 13.75H70.625V29.375H73V23.5H76.25C78.875 23.5 81.375 21.625 81.375 18.625C81.375 15.625 78.875 13.75 76.25 13.75ZM76.375 21.25H73V15.875H76.375C78.125 15.875 79.125 17.375 79.125 18.5C79 19.875 78 21.25 76.375 21.25ZM90.75 19C89 19 87.25 19.75 86.625 21.375L88.75 22.25C89.25 21.375 90 21.125 90.875 21.125C92.125 21.125 93.25 21.875 93.375 23.125V23.25C93 23 92 22.625 91 22.625C88.75 22.625 86.5 23.875 86.5 26.125C86.5 28.25 88.375 29.625 90.375 29.625C92 29.625 92.75 28.875 93.375 28.125H93.5V29.375H95.75V23.375C95.5 20.625 93.375 19 90.75 19ZM90.5 27.625C89.75 27.625 88.625 27.25 88.625 26.25C88.625 25 90 24.625 91.125 24.625C92.125 24.625 92.625 24.875 93.25 25.125C93 26.625 91.75 27.625 90.5 27.625ZM103.625 19.375L101 26.125H100.875L98.125 19.375H95.625L99.75 28.875L97.375 34.125H99.75L106.125 19.375H103.625ZM82.625 29.375H85V13.75H82.625V29.375Z" fill="white"/>
</svg>
