<svg width="27" height="30" viewBox="0 0 27 30" fill="none" xmlns="http://www.w3.org/2000/svg">
<path fill-rule="evenodd" clip-rule="evenodd" d="M18.9356 19.9448L14.8746 15.8839L1.61894 29.1395C1.85847 29.1655 2.11095 29.1219 2.34856 28.9923L18.9356 19.9448ZM20.0794 19.3209L15.7585 15L20.0786 10.6798L25.9882 13.9032C26.8567 14.377 26.8567 15.6242 25.9882 16.098L20.0794 19.3209ZM18.9348 10.0559L14.8746 14.1161L1.62003 0.861534C1.85923 0.835836 2.11131 0.879475 2.34857 1.00889L18.9348 10.0559ZM0.600784 1.61006C0.536293 1.75989 0.5 1.92689 0.5 2.10626V27.8949C0.5 28.0739 0.536157 28.2406 0.600422 28.3903L13.9907 15L0.600784 1.61006Z" fill="white"/>
</svg>
