<svg width="22" height="19" viewBox="0 0 22 19" fill="none" xmlns="http://www.w3.org/2000/svg">
<path fill-rule="evenodd" clip-rule="evenodd" d="M20.9821 6.93442C21.2642 5.8712 20.625 4.77052 19.5618 4.48847L6.02986 0.89872C4.96664 0.616668 3.86596 1.25581 3.5839 2.31903L1.0198 11.9847C0.737747 13.0479 1.37689 14.1486 2.44011 14.4307L15.9721 18.0204C17.0353 18.3025 18.136 17.6633 18.418 16.6001L20.9821 6.93442ZM18.9644 6.39916L5.59918 2.85364L11.1738 8.80303L18.9644 6.39916ZM4.92591 5.06017L2.95293 12.4975L16.4849 16.0873L18.4583 8.64837L11.1663 10.8984C10.8009 11.0111 10.4032 10.9056 10.1417 10.6266L4.92591 5.06017Z" fill="white"/>
</svg>
