<svg width="20" height="16" viewBox="0 0 20 16" fill="none" xmlns="http://www.w3.org/2000/svg">
<path d="M4.69027 16C3.15634 16 1.99115 15.4581 1.19469 14.3743C0.39823 13.262 0 11.7219 0 9.75401C0 5.36185 2.30088 2.11052 6.90265 0L8.49557 3.16578C5.66372 4.36364 4.24779 6.17469 4.24779 8.59893C4.39528 8.57041 4.54277 8.55615 4.69027 8.55615C5.75221 8.55615 6.65192 8.86988 7.38938 9.49733C8.12684 10.1248 8.49557 10.9804 8.49557 12.0642C8.49557 13.262 8.14159 14.2175 7.43363 14.9305C6.72566 15.6435 5.81121 16 4.69027 16ZM16.1947 16C14.6608 16 13.4956 15.4581 12.6991 14.3743C11.9027 13.262 11.5044 11.7219 11.5044 9.75401C11.5044 5.36185 13.8053 2.11052 18.4071 0L20 3.16578C17.1681 4.36364 15.7522 6.17469 15.7522 8.59893C15.8997 8.57041 16.0472 8.55615 16.1947 8.55615C17.2566 8.55615 18.1563 8.86988 18.8938 9.49733C19.6313 10.1248 20 10.9804 20 12.0642C20 13.262 19.646 14.2175 18.9381 14.9305C18.2301 15.6435 17.3156 16 16.1947 16Z" fill="#CEDAE1"/>
</svg>
