<svg width="20" height="23" viewBox="0 0 20 23" fill="none" xmlns="http://www.w3.org/2000/svg">
<path d="M15.5103 1.10933C15.4321 0.562611 14.9254 0.182832 14.3787 0.261066C13.832 0.339301 13.4522 0.845922 13.5305 1.39264L13.5376 1.44214C12.4408 1.83309 11.7335 2.95346 11.9048 4.15074C12.1004 5.51753 13.3669 6.46698 14.7337 6.27139L15.7236 6.12973C15.997 6.09062 16.2503 6.28051 16.2894 6.55386C16.3285 6.82722 16.1386 7.08053 15.8653 7.11965L13.3905 7.47379C12.8438 7.55202 12.464 8.05865 12.5422 8.60536C12.6205 9.15208 13.1271 9.53186 13.6738 9.45362L14.6637 9.31197C14.742 9.85868 15.2486 10.2385 15.7953 10.1602C16.342 10.082 16.7218 9.57537 16.6436 9.02865L16.6365 8.97915C16.6368 8.97905 16.6362 8.97925 16.6365 8.97915C16.874 8.89447 17.0942 8.7755 17.2903 8.62901C17.3695 8.5698 17.445 8.50609 17.5163 8.43831C18.0831 7.89952 18.3894 7.10363 18.2701 6.27049C18.2405 6.06303 18.1861 5.86519 18.1105 5.67951C17.8909 5.14051 17.492 4.70397 16.9969 4.43213C16.9393 4.40054 16.8805 4.37117 16.8205 4.34412C16.4563 4.18 16.049 4.1014 15.6278 4.13014C15.5656 4.13436 15.503 4.14092 15.4403 4.1499L14.4504 4.29156C14.4388 4.29322 14.4272 4.29446 14.4157 4.29531C14.1563 4.31392 13.9229 4.12883 13.8855 3.86737C13.8513 3.62863 13.9919 3.40518 14.2101 3.32636C14.2417 3.31492 14.275 3.30653 14.3096 3.30158L14.3006 3.30287C14.3033 3.30244 14.3069 3.30197 14.3096 3.30158L16.7835 2.9475C17.3302 2.86927 17.71 2.36265 17.6318 1.81593C17.5536 1.26922 17.0469 0.889436 16.5002 0.967671L15.5103 1.10933Z" fill="white"/>
<path d="M1.93569 5.07228L8.88727 4.07752C8.89592 4.24261 8.91205 4.40878 8.93593 4.57564C9.0096 5.09041 9.15231 5.57827 9.35336 6.03119L2.21901 7.05211L3.63556 16.9513L9.57506 16.1013L10.0243 19.2409L12.7146 15.6521L17.4944 14.9681L17.1932 12.8635C17.9429 12.5518 18.5669 12.0227 18.9991 11.3644L19.4742 14.6848C19.6307 15.7782 18.8711 16.7915 17.7777 16.9479L13.818 17.5145L10.1765 22.3723C9.64217 23.0851 8.51269 22.796 8.38649 21.9141L7.87854 18.3645L3.91887 18.9311C2.82544 19.0876 1.8122 18.328 1.65573 17.2346L0.239173 7.33542C0.0827047 6.24199 0.842263 5.22875 1.93569 5.07228Z" fill="white"/>
</svg>
