<svg width="19" height="20" viewBox="0 0 19 20" fill="none" xmlns="http://www.w3.org/2000/svg">
<path d="M14.7071 5.70711L18.7071 1.70711C19.0976 1.31658 19.0976 0.683417 18.7071 0.292893C18.3166 -0.0976311 17.6834 -0.0976311 17.2929 0.292893L14 3.58579L12.7071 2.29289C12.3166 1.90237 11.6834 1.90237 11.2929 2.29289C10.9024 2.68342 10.9024 3.31658 11.2929 3.70711L13.2929 5.70711C13.6834 6.09763 14.3166 6.09763 14.7071 5.70711Z" fill="white"/>
<path d="M2 1H8.53475C8.17825 1.61678 8 2.30839 8 3H2V13H8V16.5809L11.1716 13H16V8.46525C16.7763 8.01654 17.3731 7.28377 18 6.65685V13C18 14.1046 17.1046 15 16 15H12L7.70711 19.7022C7.07714 20.3321 6 19.886 6 18.9951V15H2C0.89543 15 0 14.1046 0 13V3C0 1.89543 0.895431 1 2 1Z" fill="white"/>
<path d="M14.7071 5.70711L18.7071 1.70711C19.0976 1.31658 19.0976 0.683417 18.7071 0.292893C18.3166 -0.0976311 17.6834 -0.0976311 17.2929 0.292893L14 3.58579L12.7071 2.29289C12.3166 1.90237 11.6834 1.90237 11.2929 2.29289C10.9024 2.68342 10.9024 3.31658 11.2929 3.70711L13.2929 5.70711C13.6834 6.09763 14.3166 6.09763 14.7071 5.70711Z" stroke="white"/>
<path d="M2 1H8.53475C8.17825 1.61678 8 2.30839 8 3H2V13H8V16.5809L11.1716 13H16V8.46525C16.7763 8.01654 17.3731 7.28377 18 6.65685V13C18 14.1046 17.1046 15 16 15H12L7.70711 19.7022C7.07714 20.3321 6 19.886 6 18.9951V15H2C0.89543 15 0 14.1046 0 13V3C0 1.89543 0.895431 1 2 1Z" stroke="white"/>
</svg>
