<svg width="24" height="24" viewBox="0 0 24 24" fill="none" xmlns="http://www.w3.org/2000/svg">
    <path fill-rule="evenodd" clip-rule="evenodd"
          d="M11.5348 4H5C3.89543 4 3 4.89543 3 6V16C3 17.1046 3.89543 18 5 18H7H9V20V21.5858C9 22.4767 10.0771 22.9229 10.7071 22.2929L15 18H19C20.1046 18 21 17.1046 21 16V9.65685L19.8284 10.8284C19.5751 11.0818 19.2962 11.2941 19 11.4652V16H15H14.1716L13.5858 16.5858L11 19.1716V18V16H9H5V6H11C11 5.30839 11.1783 4.61678 11.5348 4Z"
          fill="white"/>
    <path d="M15 6L17 8L21 4" stroke="white" stroke-width="2" stroke-linecap="round" stroke-linejoin="round"/>
</svg>
