<svg width="30" height="34" viewBox="0 0 30 34" fill="none" xmlns="http://www.w3.org/2000/svg">
<path fill-rule="evenodd" clip-rule="evenodd" d="M11.1878 0.181976L22.7789 3.2878L29.1429 14.3105L24.4841 31.6972C24.0571 33.291 22.4037 34.2455 20.8099 33.8185L19.3603 33.4301L20.1367 30.5323L21.5864 30.9207L25.4686 16.4318L16.7753 14.1025C16.7753 14.1025 18.7412 6.7766 19.1083 5.4101L10.4114 3.07975L6.14084 19.0175L3.24759 18.2423L7.52807 2.30718C7.95512 0.713401 9.59403 -0.245075 11.1878 0.181976ZM25.0425 13.2118L21.6802 7.38816L20.4496 11.9811L25.0425 13.2118Z" fill="white"/>
<path d="M3.69856 29.2335L5.25147 23.438L2.3537 22.6615L0.800781 28.4571L3.69856 29.2335Z" fill="white"/>
<path d="M19.2749 24.0897L16.9455 32.783L14.0478 32.0066L16.3771 23.3133L19.2749 24.0897Z" fill="white"/>
<path d="M10.3221 31.0083L13.8161 17.9683L10.9183 17.1918L7.42427 30.2318L10.3221 31.0083Z" fill="white"/>
</svg>
