<svg width="14" height="14" viewBox="0 0 14 14" fill="none" xmlns="http://www.w3.org/2000/svg">
<path d="M13.2225 0H0.777467C0.57127 0 0.373518 0.0819114 0.227715 0.227715C0.0819114 0.373518 0 0.57127 0 0.777467L0 13.2225C0 13.4287 0.0819114 13.6265 0.227715 13.7723C0.373518 13.9181 0.57127 14 0.777467 14H7.4788V8.58667H5.66067V6.46707H7.4788V4.91213C7.4418 4.54229 7.48623 4.16884 7.60896 3.818C7.73168 3.46716 7.92973 3.14745 8.1892 2.88131C8.44866 2.61518 8.76325 2.40908 9.11086 2.27748C9.45847 2.14589 9.83068 2.092 10.2013 2.1196C10.7457 2.11813 11.2896 2.14617 11.8309 2.2036V4.08333H10.7109C9.8364 4.08333 9.66653 4.4996 9.66653 5.11V6.46147H11.76L11.4875 8.58107H9.6656V14H13.2216C13.3238 14.0001 13.425 13.9801 13.5194 13.9411C13.6138 13.9021 13.6997 13.8448 13.772 13.7726C13.8442 13.7004 13.9016 13.6147 13.9407 13.5203C13.9799 13.4259 14 13.3247 14 13.2225V0.777467C14 0.57127 13.9181 0.373518 13.7723 0.227715C13.6265 0.0819114 13.4287 0 13.2225 0Z" fill="#CEDAE1"/>
</svg>
