<svg width="14" height="14" viewBox="0 0 14 14" fill="none" xmlns="http://www.w3.org/2000/svg">
<path d="M12.9636 0H1.03347C0.462778 0 0 0.452083 0 1.00917V12.9899C0 13.5469 0.462778 14 1.03347 14H12.9636C13.5343 14 14 13.5469 14 12.9899V1.00917C14 0.452083 13.5353 0 12.9636 0ZM4.15236 11.9301H2.07569V5.24903H4.15236V11.9301ZM3.11403 4.33514C2.44806 4.33514 1.90944 3.79556 1.90944 3.13056C1.90944 2.46653 2.44806 1.92694 3.11403 1.92694C3.77806 1.92694 4.31764 2.46653 4.31764 3.13056C4.31764 3.79556 3.77806 4.33514 3.11403 4.33514ZM11.9301 11.9301H9.85542V8.68097C9.85542 7.90611 9.84083 6.90958 8.77625 6.90958C7.69611 6.90958 7.52986 7.75347 7.52986 8.62556V11.9311H5.45417V5.24903H7.44625V6.16194H7.47347C7.75056 5.63694 8.42819 5.08278 9.43833 5.08278C11.5413 5.08278 11.9292 6.46625 11.9292 8.26583V11.9301H11.9301Z" fill="#CEDAE1"/>
</svg>
