<svg width="18" height="14" viewBox="0 0 18 14" fill="none" xmlns="http://www.w3.org/2000/svg">
<path d="M5.50436 13.9988C6.83858 14.0191 8.16351 13.774 9.40211 13.2775C10.6407 12.7811 11.7682 12.0434 12.7191 11.1073C13.67 10.1712 14.4253 9.0553 14.9411 7.82462C15.4568 6.59394 15.7227 5.27301 15.7233 3.93864C15.7233 3.78553 15.7233 3.63335 15.713 3.48118C16.4141 2.98245 17.0207 2.36284 17.5045 1.65137C16.8485 1.93884 16.1536 2.1276 15.4423 2.21152C16.1889 1.77329 16.7501 1.07794 17.0209 0.255677C16.3144 0.668027 15.5433 0.958097 14.7402 1.11364C14.1932 0.546313 13.4768 0.171815 12.6987 0.0464002C11.9206 -0.079015 11.1228 0.0514215 10.4252 0.418122C9.73173 0.778553 9.17789 1.35951 8.85099 2.06943C8.52408 2.77935 8.44272 3.57787 8.6197 4.33913C7.19706 4.27135 5.80416 3.90785 4.52982 3.2718C3.25549 2.63576 2.12768 1.74114 1.21832 0.644985C0.760225 1.42325 0.620158 2.34828 0.827299 3.22728C1.03444 4.10628 1.57281 4.87143 2.33021 5.36327C1.7595 5.34683 1.20085 5.19517 0.700181 4.92075V4.96557C0.704363 5.78769 0.993953 6.58283 1.51945 7.21509C2.04494 7.84735 2.77371 8.27747 3.58119 8.43193C3.0521 8.57389 2.4978 8.59464 1.95957 8.49261C2.19479 9.19952 2.64419 9.8157 3.24542 10.2557C3.84665 10.6956 4.5699 10.9376 5.31484 10.9479C4.0373 11.9334 2.46863 12.4667 0.855155 12.464C0.569353 12.4634 0.283826 12.4463 0 12.4127C1.64851 13.453 3.55876 14.0035 5.50809 13.9998" fill="#CEDAE1"/>
</svg>
